<?xml version="1.0" encoding="UTF-8"?>
<svg width="41px" height="45px" viewBox="0 0 41 45" version="1.1" xmlns="http://www.w3.org/2000/svg" xmlns:xlink="http://www.w3.org/1999/xlink">
    <!-- Generator: Sketch 50.2 (55047) - http://www.bohemiancoding.com/sketch -->
    <title>cd-icon-close</title>
    <desc>Created with Sketch.</desc>
    <defs></defs>
    <g id="Page-1" stroke="none" stroke-width="1" fill="none" fill-rule="evenodd">
        <g id="cd-icon-close" fill="#8D0000" fill-rule="nonzero">
            <g transform="translate(20.500000, 22.500000) rotate(180.000000) translate(-20.500000, -22.500000) translate(-0.000000, 0.000000)" id="Combined-Shape">
                <path d="M8.2011735,37.7860097 C7.70123414,37.5905455 8.08511615,38.2966408 7.58220095,38.1011766 C7.24742013,37.4935711 7.72206494,37.1965868 8.2011735,37.0011227 C8.10594696,36.4677632 8.402042,35.5358993 8.04940619,35.2646738 C8.42584863,37.1465844 5.92317598,38.3905848 5.11226243,36.6859557 C3.86836568,36.9435441 3.86836568,38.4602852 2.48162911,38.5724119 C3.3163493,37.5556953 5.25212642,36.258662 4.64505719,34.796469 C5.29527595,34.9858723 5.32503424,34.5434263 5.73123498,34.4797868 C5.55119729,34.2888684 5.28634846,34.1949244 5.42026079,33.6933846 C7.05994287,33.5979254 6.35020752,30.9190061 4.95454346,31.173564 C4.95454346,30.3326137 5.11523826,29.335595 4.33705883,29.2871078 C4.39806334,28.5416167 4.28795764,27.973407 4.1823157,27.3961059 C3.86390193,27.4930804 3.10655331,27.1430632 3.25534479,27.7112729 C3.0143026,27.5339915 2.87443861,27.2582204 2.63637225,27.0809389 C1.94300396,27.6355116 1.96829851,28.9234536 1.09340462,29.2871078 C1.30468852,28.456764 1.60375939,27.7112729 2.0173997,27.0809389 C1.25261151,26.0899812 0.133699595,25.8293624 0.00573892479,24.5641488 C-0.0641930696,23.8444165 0.538412414,23.6050108 0.00573892479,22.9883139 C0.291418561,22.0685718 1.31064018,21.9003817 1.09340462,20.4669781 C1.38354801,20.4048538 1.7555267,20.4139452 1.70642551,19.997258 C2.10518667,20.4215213 2.7926033,19.9063445 3.41157584,19.6805758 C3.9814472,19.6714845 4.02310881,20.2139353 4.80128824,19.997258 C5.75652953,18.7078008 6.61059261,17.3243996 7.58220095,16.0576708 C9.86615013,16.6167891 10.5773734,14.1954582 9.74860487,12.5968949 C10.5342239,10.5286116 8.98381667,8.13606999 9.28288754,5.5116988 C8.96447378,5.25865608 8.86924723,4.78590561 8.51065977,4.56771308 C8.33806166,3.8540417 8.88115055,2.41154668 8.2011735,2.20547596 C8.49429271,1.66302511 8.49429271,1.80545634 8.2011735,1.26149025 C9.24717759,1.77212137 8.98381667,3.61766647 10.0580911,4.09799307 C9.65486623,6.80418646 11.2618142,10.0801048 11.910545,12.7575089 C12.8092456,14.1818212 15.6675298,14.5682038 15.9294028,12.281728 C16.1897879,12.281728 16.4486851,12.281728 16.7046064,12.281728 C17.0021894,12.2196037 16.8266154,11.6741224 17.3250669,11.8120079 C17.3563131,10.55134 18.2222795,9.78766618 18.405293,8.50426988 C18.5406933,7.56331461 18.2535257,6.54811329 18.405293,5.5116988 C18.6567506,3.79191744 19.5242049,2.04031635 19.1775208,0.15992105 C19.4557609,0.182649438 19.5033741,-0.0309974082 19.7964933,0.00385278662 C19.6953151,3.10703535 18.9974831,6.95116337 18.7162672,10.3952718 C18.1523475,10.2392035 18.6403836,11.1589456 17.9425515,10.866507 C17.8696437,11.2028871 18.161275,11.1634913 18.405293,11.181674 C18.0273627,12.7484175 19.6863876,13.2984445 18.7162672,14.4878968 C18.7504892,14.9227666 19.2043033,14.931858 19.3352398,15.274299 C19.8173241,15.4561261 19.7087064,15.025802 19.9542123,14.959132 C21.2591136,15.669773 21.9792643,16.9865043 23.504377,17.4804679 C23.504377,17.7956349 23.504377,18.1062562 23.504377,18.4199079 C23.5549661,18.6381004 23.8927227,18.5532478 24.1233495,18.5805219 C24.6337043,20.2321181 26.1588169,21.3715679 25.3612946,23.4580339 C25.9609242,23.955028 26.6170947,24.3853521 27.3729554,24.7187018 C26.2852897,24.7899174 25.6320951,27.4355018 27.0619812,27.7112729 C25.4148595,27.7158186 22.8467186,29.1219482 25.2095273,30.0719948 C25.1574503,30.4371642 25.2303581,30.6765699 25.3612946,30.858397 C28.8147448,33.7433871 33.525483,35.3510417 37.4193559,37.7860097 C38.0100581,37.861771 37.9148315,37.2405284 38.6558131,37.4708427 C38.5992723,37.7375224 38.7778221,37.767827 38.9638115,37.7860097 C39.0515984,38.1375421 38.6692043,38.0087479 38.6558131,38.2572449 C39.4533354,38.3951305 40.0678442,38.7102974 40.822217,38.8875789 C40.857927,39.1497129 40.9665447,39.3406314 40.9948151,39.6103416 C41.0052305,39.7224683 41.0007668,39.8467168 40.9739843,39.9921785 C39.9741056,39.8861127 39.3179352,39.6588288 38.0368406,39.2027459 C38.0368406,39.0951648 38.0368406,38.9936447 38.0368406,38.8875789 C38.0368406,38.7845435 38.0368406,38.6799929 38.0368406,38.5724119 C35.8957312,38.1284507 34.8155051,36.6056487 32.6282703,36.21169 C32.6059516,35.9177362 32.5285801,35.6874218 32.3172962,35.5798408 C32.0003703,35.8859164 31.7117148,36.2283575 31.5480442,36.6859557 C31.1314281,36.4723088 30.9885883,35.9889518 31.080839,35.2646738 C29.4247898,34.0146125 27.6467317,32.8857692 25.3612946,32.2781637 C25.9728276,32.6387874 27.7151758,33.8949097 25.9802671,34.3252338 C26.0070496,34.5055457 26.2644589,34.4585737 26.4430086,34.4797868 C23.7609601,35.6084331 25.5,38.6453634 22.5,37.0011227 C19.5,35.356882 24.500782,38.6453634 25.2095273,41.8786347 C24.9506301,41.8786347 24.0712725,42.5089687 23.8138632,42.5089687 C23.6219222,41.9983376 24.3152905,42.3892658 24.1233495,41.8786347 C24.1069824,41.5331632 23.4701549,41.8119648 23.1948907,41.7240817 C23.1948907,41.9316676 23.1948907,42.1407688 23.1948907,42.3544156 C23.2603589,42.7089785 24.1025187,42.269563 23.8138632,42.9802039 C23.9209931,42.9802039 24.0191955,42.9802039 24.1233495,42.9802039 L24.1233495,43.6090227 C24.1635232,44.027225 24.2289914,44.4136076 24.342073,44.7590791 L23.6873905,45 C23.3005326,43.9378267 22.3973684,42.9180797 21.3424368,42.6650369 C22.9002836,40.3437109 19.9780189,38.2693667 18.8665466,36.6859557 C18.283284,36.4541261 18.5704516,37.1162798 18.0972947,37.0011227 C18.772808,38.7269649 18.2356707,41.6877163 18.405293,43.9257049 C17.795248,41.9240915 18.1523475,38.9360661 17.9425515,36.5253418 C17.725316,36.1344135 17.4083901,36.2495706 17.0155806,36.3707887 C16.7046064,37.2132543 17.7297797,37.5147842 17.1673479,38.1011766 C16.7566835,37.7860097 16.5647424,37.245074 16.0871218,37.0011227 C15.6898486,37.1693127 15.4458305,37.5026624 15.4666613,38.1011766 C15.000944,37.9996565 14.756926,37.6663068 14.8491767,37.0011227 C13.3106728,37.2556806 12.5815946,36.6859557 11.6010588,36.3707887 C11.7156282,36.010165 11.3228187,35.1404253 11.910545,35.2646738 C11.6650391,34.8267736 11.2186647,35.487412 10.6770637,35.2646738 C10.3467466,35.3707396 10.1681968,36.3207863 10.6770637,36.3707887 C11.2008097,36.2010834 10.2455684,36.3207863 10.5208326,35.8950078 C10.9627433,35.9237971 10.8228793,35.3631635 11.4492915,35.5798408 C11.1219502,36.0783501 11.1219502,36.1874464 11.4492915,36.6859557 C10.9478642,37.3784139 10.3422829,37.9723824 9.28288754,38.1011766 C9.28288754,37.7329768 9.28288754,37.3647769 9.28288754,37.0011227 C7.96608297,36.8980873 8.87222306,38.096631 8.663915,39.0481928 C9.36472285,39.854293 9.61766837,41.1195066 10.5208326,41.7240817 C9.30371835,41.4892217 8.61630172,39.3572989 8.2011735,37.7860097 Z M22.7,18.3 C22.3,17.9 21.7,17.9 21.3,18.3 L15,24.6 L8.7,18.3 C8.3,17.9 7.7,17.9 7.3,18.3 C6.9,18.7 6.9,19.3 7.3,19.7 L13.6,26 L7.3,32.3 C6.9,32.7 6.9,33.3 7.3,33.7 C7.5,33.9 7.7,34 8,34 C8.3,34 8.5,33.9 8.7,33.7 L15,27.4 L21.3,33.7 C21.5,33.9 21.8,34 22,34 C22.2,34 22.5,33.9 22.7,33.7 C23.1,33.3 23.1,32.7 22.7,32.3 L16.4,26 L22.7,19.7 C23.1,19.3 23.1,18.7 22.7,18.3 Z"></path>
            </g>
        </g>
    </g>
</svg>